<svg width="30" height="30" viewBox="0 0 30 30" fill="none" xmlns="http://www.w3.org/2000/svg">
<path fill-rule="evenodd" clip-rule="evenodd" d="M15 29.434C22.9717 29.434 29.434 22.9717 29.434 15C29.434 7.02834 22.9717 0.566038 15 0.566038C7.02834 0.566038 0.566038 7.02834 0.566038 15C0.566038 22.9717 7.02834 29.434 15 29.434ZM15 30C23.2843 30 30 23.2843 30 15C30 6.71573 23.2843 0 15 0C6.71573 0 0 6.71573 0 15C0 23.2843 6.71573 30 15 30ZM9.30861 9.82285C9.41914 9.71232 9.59833 9.71232 9.70886 9.82285L14.8861 15.0001L20.0633 9.82285C20.1739 9.71232 20.3531 9.71232 20.4636 9.82285C20.5741 9.93337 20.5741 10.1126 20.4636 10.2231L15.2863 15.4003L20.5156 20.6296C20.6261 20.7401 20.6261 20.9193 20.5156 21.0298C20.4051 21.1404 20.2259 21.1404 20.1153 21.0298L14.8861 15.8006L9.65685 21.0298C9.54632 21.1404 9.36713 21.1404 9.2566 21.0298C9.14607 20.9193 9.14607 20.7401 9.2566 20.6296L14.4858 15.4003L9.30861 10.2231C9.19808 10.1126 9.19808 9.93337 9.30861 9.82285Z" fill="#C4C4C4"/>
</svg>
